<svg width="40" height="40" viewBox="0 0 40 40" fill="none" xmlns="http://www.w3.org/2000/svg">
<path d="M30.5308 38.8724H19.1275C18.3734 38.8724 17.7481 38.2471 17.7481 37.493C17.7481 36.7389 18.3734 36.1136 19.1275 36.1136H30.5308C32.4988 36.1136 34.43 34.4765 34.761 32.5269L37.2072 17.8867C37.4279 16.5625 36.6924 14.6679 35.6624 13.8402L22.9164 3.651C21.445 2.47389 18.9988 2.47387 17.5458 3.63259L4.79992 13.8402C3.75155 14.6863 3.03425 16.5625 3.25496 17.8867L3.76995 20.9949C3.89869 21.7489 3.38373 22.4662 2.62964 22.5766C1.87555 22.7237 1.17666 22.1904 1.04792 21.4363L0.53293 18.3465C0.14669 16.0659 1.25025 13.1415 3.07109 11.6885L15.817 1.48061C18.2815 -0.505767 22.1623 -0.487356 24.6452 1.49902L37.3911 11.6885C39.1936 13.1415 40.2971 16.0659 39.9293 18.3465L37.4831 32.9867C36.9313 36.2421 33.823 38.8724 30.5308 38.8724Z" fill="#00CE3A"/>
<path d="M7.3575 39.2221C6.60341 39.2221 5.99647 38.6151 5.97807 37.8794C5.9229 35.3964 4.286 33.7595 1.80303 33.7043C1.04894 33.686 0.441976 33.0606 0.460368 32.2881C0.478761 31.5341 1.08571 30.9455 1.83979 30.9455H1.87656C5.83092 31.0375 8.66336 33.8515 8.73693 37.8058C8.75532 38.5599 8.14835 39.2037 7.39427 39.2221C7.37587 39.2221 7.37589 39.2221 7.3575 39.2221Z" fill="#00CE3A"/>
<path d="M12.8752 39.222C12.1211 39.222 11.4958 38.6151 11.4958 37.861C11.4774 36.6471 11.275 35.4884 10.9072 34.4032C9.96919 31.7179 7.96442 29.7314 5.27914 28.775C4.19399 28.3887 3.03527 28.1866 1.82137 28.1866C1.06729 28.1866 0.441964 27.5612 0.460357 26.7888C0.460357 26.0347 1.0857 25.4277 1.83978 25.4277H1.85818C3.38474 25.4461 4.83772 25.7036 6.19875 26.1818C9.67491 27.4141 12.2682 30.0074 13.5005 33.4836C13.9787 34.8446 14.2362 36.316 14.2546 37.8242C14.2546 38.5967 13.6477 39.222 12.8752 39.222Z" fill="#00CE3A"/>
<path d="M1.83924 39.6818C0.809264 39.6818 0 38.8542 0 37.8426C0 36.831 0.827656 36.0034 1.83924 36.0034C2.85082 36.0034 3.67847 36.831 3.67847 37.8426C3.67847 38.8542 2.86921 39.6818 1.83924 39.6818Z" fill="#00CE3A"/>
</svg>
